<svg width="12" height="13" viewBox="0 0 12 13" fill="none" xmlns="http://www.w3.org/2000/svg">
<path d="M9.375 12.5C8.85417 12.5 8.41146 12.3177 8.04688 11.9531C7.68229 11.5885 7.5 11.1458 7.5 10.625C7.5 10.5625 7.51562 10.4167 7.54688 10.1875L3.15625 7.625C2.98958 7.78125 2.79688 7.90375 2.57812 7.9925C2.35938 8.08125 2.125 8.12542 1.875 8.125C1.35417 8.125 0.911458 7.94271 0.546875 7.57812C0.182292 7.21354 0 6.77083 0 6.25C0 5.72917 0.182292 5.28646 0.546875 4.92188C0.911458 4.55729 1.35417 4.375 1.875 4.375C2.125 4.375 2.35938 4.41938 2.57812 4.50813C2.79688 4.59688 2.98958 4.71917 3.15625 4.875L7.54688 2.3125C7.52604 2.23958 7.51312 2.16937 7.50812 2.10187C7.50312 2.03437 7.50042 1.95875 7.5 1.875C7.5 1.35417 7.68229 0.911458 8.04688 0.546875C8.41146 0.182292 8.85417 0 9.375 0C9.89583 0 10.3385 0.182292 10.7031 0.546875C11.0677 0.911458 11.25 1.35417 11.25 1.875C11.25 2.39583 11.0677 2.83854 10.7031 3.20312C10.3385 3.56771 9.89583 3.75 9.375 3.75C9.125 3.75 8.89062 3.70563 8.67188 3.61688C8.45312 3.52813 8.26042 3.40583 8.09375 3.25L3.70312 5.8125C3.72396 5.88542 3.73708 5.95583 3.7425 6.02375C3.74792 6.09167 3.75042 6.16708 3.75 6.25C3.74958 6.33292 3.74708 6.40854 3.7425 6.47687C3.73792 6.54521 3.72479 6.61542 3.70312 6.6875L8.09375 9.25C8.26042 9.09375 8.45312 8.97146 8.67188 8.88312C8.89062 8.79479 9.125 8.75042 9.375 8.75C9.89583 8.75 10.3385 8.93229 10.7031 9.29688C11.0677 9.66146 11.25 10.1042 11.25 10.625C11.25 11.1458 11.0677 11.5885 10.7031 11.9531C10.3385 12.3177 9.89583 12.5 9.375 12.5Z" fill="#EC4899"/>
</svg>
